HIERARCHY
ROOT hip
{
	OFFSET 0.000000 0.000000 0.000000 
	CHANNELS 6 Xposition Yposition Zposition Xrotation Zrotation Yrotation
	JOINT abdomen
	{
		OFFSET 0.000000 3.402643 0.000000 
		CHANNELS 3 Xrotation Zrotation Yrotation
		JOINT chest
		{
			OFFSET 0.000000 8.438565 -0.680529 
			CHANNELS 3 Xrotation Zrotation Yrotation
			JOINT neck
			{
				OFFSET 0.000000 10.207942 -0.272212 
				CHANNELS 3 Xrotation Zrotation Yrotation
				JOINT head
				{
					OFFSET 0.000000 3.130431 0.000000 
					CHANNELS 3 Xrotation Zrotation Yrotation
					End Site
					{
						OFFSET 0.000000 3.130435 0.000000 
					}
				}
			}
			JOINT lCollar
			{
				OFFSET 3.470700 6.669187 -0.816635 
				CHANNELS 3 Yrotation Zrotation Xrotation
				JOINT lShldr
				{
					OFFSET 3.198488 0.000000 0.000000 
					CHANNELS 3 Zrotation Yrotation Xrotation
					JOINT lForeArm
					{
						OFFSET 10.139888 0.000000 0.000000 
						CHANNELS 3 Yrotation Zrotation Xrotation
						JOINT lHand
						{
							OFFSET 8.370511 0.000000 0.000000 
							CHANNELS 3 Zrotation Yrotation Xrotation
							End Site
							{
								OFFSET 4.083176 0.000000 0.000000 
							}
						}
					}
				}
			}
			JOINT rCollar
			{
				OFFSET -3.470700 6.669187 -0.816635 
				CHANNELS 3 Yrotation Zrotation Xrotation
				JOINT rShldr
				{
					OFFSET -3.198488 0.000000 0.000000 
					CHANNELS 3 Zrotation Yrotation Xrotation
					JOINT rForeArm
					{
						OFFSET -10.139888 0.000000 0.000000 
						CHANNELS 3 Yrotation Zrotation Xrotation
						JOINT rHand
						{
							OFFSET -8.370511 0.000000 0.000000 
							CHANNELS 3 Zrotation Yrotation Xrotation
							End Site
							{
								OFFSET -4.083176 0.000000 0.000000 
							}
						}
					}
				}
			}
		}
	}
	JOINT lThigh
	{
		OFFSET 5.308129 -1.633274 1.361059 
		CHANNELS 3 Xrotation Zrotation Yrotation
		JOINT lShin
		{
			OFFSET -2.041588 -20.007561 0.000000 
			CHANNELS 3 Xrotation Zrotation Yrotation
			JOINT lFoot
			{
				OFFSET 0.000000 -19.190928 -1.224953 
				CHANNELS 3 Xrotation Yrotation Zrotation
				End Site
				{
					OFFSET 0.000000 -2.449906 4.627600 
				}
			}
		}
	}
	JOINT rThigh
	{
		OFFSET -5.308129 -1.633274 1.361059 
		CHANNELS 3 Xrotation Zrotation Yrotation
		JOINT rShin
		{
			OFFSET 2.041588 -20.007561 0.000000 
			CHANNELS 3 Xrotation Zrotation Yrotation
			JOINT rFoot
			{
				OFFSET 0.000000 -19.190928 -1.224953 
				CHANNELS 3 Xrotation Yrotation Zrotation
				End Site
				{
					OFFSET 0.000000 -2.449906 4.627600 
				}
			}
		}
	}
}
MOTION
Frames: 14
Frame Time: 0.033333
0.041663 39.249485 -0.259500 -0.010809 -0.017476 -26.523439 -0.019531 0.000000 -0.019531 24.170414 7.145720 -20.172024 -8.544920 -0.009766 -0.009767 19.799641 16.861872 47.851227 1.992188 -2.001953 0.000341 -7.157659 -51.153946 -30.515745 -46.276134 -0.600172 8.546262 -37.529163 -54.123917 -161.582092 -2.001953 1.992188 0.000000 -30.590269 136.110611 -90.382996 54.418850 0.540857 8.619150 13.216340 -54.075264 -39.777096 -27.576073 22.028522 15.224318 23.229174 -1.459894 -2.041651 8.016793 -6.673727 -10.469345 7.681762 -17.123859 -13.610672 22.950464 1.412300 1.960032 -22.206375 -16.149578 16.796751 
0.041663 39.244045 -0.259500 -0.010809 -0.017476 -26.523439 -0.019531 0.000000 -0.019531 24.170414 7.145720 -20.172024 -8.544920 -0.009766 -0.009767 19.799641 16.861872 47.851227 1.992188 -2.001953 0.000341 -7.157659 -51.153946 -30.515745 -46.276134 -0.600172 8.546262 -37.529163 -54.123917 -161.582092 -2.001953 1.992188 0.000000 -30.590269 136.110611 -90.382996 54.418850 0.540857 8.619150 13.216340 -54.075264 -39.777096 -27.576071 22.028530 15.224316 23.229174 -1.459897 -2.041651 8.016793 -6.673727 -10.469345 7.681762 -17.123859 -13.610671 22.950464 1.412300 1.960032 -22.206375 -16.149578 16.796751 
0.041663 39.238609 -0.259500 -0.010809 -0.017476 -26.523439 -0.019531 0.000000 -0.019531 24.170414 7.145720 -20.172024 -8.544920 -0.009766 -0.009767 19.799641 16.861872 47.851227 1.992188 -2.001953 0.000341 -7.157659 -51.153946 -30.515745 -46.276134 -0.600172 8.546262 -37.529163 -54.123917 -161.582092 -2.001953 1.992188 0.000000 -30.590269 136.110611 -90.382996 54.418850 0.540857 8.619150 13.216340 -54.075264 -39.777096 -27.576071 22.028530 15.224316 23.229174 -1.459895 -2.041651 8.016790 -6.673726 -10.469345 7.681762 -17.123859 -13.610671 22.950464 1.412300 1.960032 -22.206377 -16.149578 16.796755 
0.041663 39.233170 -0.259500 -0.010809 -0.017476 -26.523439 -0.019531 0.000000 -0.019531 24.170414 7.145720 -20.172024 -8.544920 -0.009766 -0.009767 19.799641 16.861872 47.851227 1.992188 -2.001953 0.000341 -7.157659 -51.153946 -30.515745 -46.276134 -0.600172 8.546262 -37.529163 -54.123917 -161.582092 -2.001953 1.992188 0.000000 -30.590269 136.110611 -90.382996 54.418850 0.540857 8.619150 13.216340 -54.075264 -39.777096 -27.576071 22.028530 15.224316 23.229174 -1.459895 -2.041651 8.016793 -6.673727 -10.469345 7.681762 -17.123859 -13.610671 22.950464 1.412300 1.960032 -22.206375 -16.149576 16.796755 
0.041663 39.227730 -0.259500 -0.010809 -0.017476 -26.523439 -0.019531 0.000000 -0.019531 24.170414 7.145720 -20.172024 -8.544920 -0.009766 -0.009767 19.799641 16.861872 47.851227 1.992188 -2.001953 0.000341 -7.157659 -51.153946 -30.515745 -46.276134 -0.600172 8.546262 -37.529163 -54.123917 -161.582092 -2.001953 1.992188 0.000000 -30.590269 136.110611 -90.382996 54.418850 0.540857 8.619150 13.216340 -54.075264 -39.777096 -27.576073 22.028522 15.224318 23.229174 -1.459894 -2.041651 8.016791 -6.673726 -10.469345 7.681762 -17.123859 -13.610672 22.950464 1.412299 1.960032 -22.206375 -16.149578 16.796751 
0.041663 39.222290 -0.259500 -0.010809 -0.017476 -26.523439 -0.019531 0.000000 -0.019531 24.170414 7.145720 -20.172024 -8.544920 -0.009766 -0.009767 19.799641 16.861872 47.851227 1.992188 -2.001953 0.000341 -7.157659 -51.153946 -30.515745 -46.276134 -0.600172 8.546262 -37.529163 -54.123917 -161.582092 -2.001953 1.992188 0.000000 -30.590269 136.110611 -90.382996 54.418850 0.540857 8.619150 13.216340 -54.075264 -39.777096 -27.576071 22.028530 15.224316 23.229174 -1.459895 -2.041651 8.016791 -6.673726 -10.469345 7.681762 -17.123859 -13.610671 22.950464 1.412300 1.960032 -22.206375 -16.149578 16.796755 
0.041663 39.216850 -0.259500 -0.010809 -0.017476 -26.523439 -0.019531 0.000000 -0.019531 24.170414 7.145720 -20.172024 -8.544920 -0.009766 -0.009767 19.799641 16.861872 47.851227 1.992188 -2.001953 0.000341 -7.157659 -51.153946 -30.515745 -46.276134 -0.600172 8.546262 -37.529163 -54.123917 -161.582092 -2.001953 1.992188 0.000000 -30.590269 136.110611 -90.382996 54.418850 0.540857 8.619150 13.216340 -54.075264 -39.777096 -27.576071 22.028530 15.224316 23.229174 -1.459897 -2.041651 8.016790 -6.673726 -10.469345 7.681762 -17.123859 -13.610671 22.950464 1.412300 1.960032 -22.206375 -16.149578 16.796751 
0.041663 39.211411 -0.259500 -0.010809 -0.017476 -26.523439 -0.019531 0.000000 -0.019531 24.170414 7.145720 -20.172024 -8.544920 -0.009766 -0.009767 19.799641 16.861872 47.851227 1.992188 -2.001953 0.000341 -7.157659 -51.153946 -30.515745 -46.276134 -0.600172 8.546262 -37.529163 -54.123917 -161.582092 -2.001953 1.992188 0.000000 -30.590269 136.110611 -90.382996 54.418850 0.540857 8.619150 13.216340 -54.075264 -39.777096 -27.576071 22.028530 15.224316 23.229174 -1.459895 -2.041651 8.016787 -6.673727 -10.469345 7.681762 -17.123859 -13.610671 22.950464 1.412300 1.960032 -22.206377 -16.149580 16.796751 
0.041663 39.205971 -0.259500 -0.010809 -0.017476 -26.523439 -0.019531 0.000000 -0.019531 24.170414 7.145720 -20.172024 -8.544920 -0.009766 -0.009767 19.799641 16.861872 47.851227 1.992188 -2.001953 0.000341 -7.157659 -51.153946 -30.515745 -46.276134 -0.600172 8.546262 -37.529163 -54.123917 -161.582092 -2.001953 1.992188 0.000000 -30.590269 136.110611 -90.382996 54.418850 0.540857 8.619150 13.216340 -54.075264 -39.777096 -27.576071 22.028530 15.224316 23.229174 -1.459893 -2.041651 8.016785 -6.673727 -10.469344 7.681762 -17.123859 -13.610671 22.950464 1.412300 1.960032 -22.206375 -16.149578 16.796751 
0.041663 39.200527 -0.259500 -0.010809 -0.017476 -26.523439 -0.019531 0.000000 -0.019531 24.170414 7.145720 -20.172024 -8.544920 -0.009766 -0.009767 19.799641 16.861872 47.851227 1.992188 -2.001953 0.000341 -7.157659 -51.153946 -30.515745 -46.276134 -0.600172 8.546262 -37.529163 -54.123917 -161.582092 -2.001953 1.992188 0.000000 -30.590269 136.110611 -90.382996 54.418850 0.540857 8.619150 13.216340 -54.075264 -39.777096 -27.576071 22.028530 15.224316 23.229174 -1.459895 -2.041651 8.016793 -6.673727 -10.469345 7.681762 -17.123859 -13.610671 22.950464 1.412300 1.960032 -22.206377 -16.149578 16.796755 
0.041663 39.195087 -0.259500 -0.010809 -0.017476 -26.523439 -0.019531 0.000000 -0.019531 24.170414 7.145720 -20.172024 -8.544920 -0.009766 -0.009767 19.799641 16.861872 47.851227 1.992188 -2.001953 0.000341 -7.157659 -51.153946 -30.515745 -46.276134 -0.600172 8.546262 -37.529163 -54.123917 -161.582092 -2.001953 1.992188 0.000000 -30.590269 136.110611 -90.382996 54.418850 0.540857 8.619150 13.216340 -54.075264 -39.777096 -27.576073 22.028522 15.224316 23.229174 -1.459893 -2.041651 8.016790 -6.673726 -10.469345 7.681762 -17.123859 -13.610671 22.950464 1.412299 1.960032 -22.206377 -16.149582 16.796753 
0.041663 39.189709 -0.259500 -0.010809 -0.017476 -26.523439 -0.019531 0.000000 -0.019531 24.170414 7.145720 -20.172024 -8.544920 -0.009766 -0.009767 19.799641 16.861872 47.851227 1.992188 -2.001953 0.000341 -7.157659 -51.153946 -30.515745 -46.276134 -0.600172 8.546262 -37.529163 -54.123917 -161.582092 -2.001953 1.992188 0.000000 -30.590269 136.110611 -90.382996 54.418850 0.540857 8.619150 13.216340 -54.075264 -39.777096 -27.576073 22.028522 15.224318 23.229174 -1.459894 -2.041651 8.016787 -6.673727 -10.469345 7.681762 -17.123859 -13.610672 22.950464 1.412299 1.960032 -22.206377 -16.149582 16.796753 
0.041663 39.184330 -0.259500 -0.010809 -0.017476 -26.523439 -0.019531 0.000000 -0.019531 24.170414 7.145720 -20.172024 -8.544920 -0.009766 -0.009767 19.799641 16.861872 47.851227 1.992188 -2.001953 0.000341 -7.157659 -51.153946 -30.515745 -46.276134 -0.600172 8.546262 -37.529163 -54.123917 -161.582092 -2.001953 1.992188 0.000000 -30.590269 136.110611 -90.382996 54.418850 0.540857 8.619150 13.216340 -54.075264 -39.777096 -27.576071 22.028530 15.224316 23.229174 -1.459895 -2.041651 8.016790 -6.673726 -10.469345 7.681762 -17.123859 -13.610671 22.950464 1.412298 1.960032 -22.206375 -16.149582 16.796751 
0.041663 39.178886 -0.259500 -0.010809 -0.017476 -26.523439 -0.019531 0.000000 -0.019531 24.170414 7.145720 -20.172024 -8.544920 -0.009766 -0.009767 19.799641 16.861872 47.851227 1.992188 -2.001953 0.000341 -7.030770 -51.184467 -30.650986 -46.235142 -0.599634 8.538767 -37.548035 -54.126846 -161.636185 -2.001953 1.992188 0.000000 -30.463678 136.090271 -90.312920 54.387569 0.547922 8.619489 13.272767 -54.126324 -39.812057 -27.822187 22.099512 15.148938 23.591379 -1.446269 -2.067774 7.902790 -6.684762 -10.482272 7.467624 -17.174143 -13.538953 23.332306 1.402747 1.978068 -22.363588 -16.155050 16.798140 
